<?xml version="1.0" encoding="UTF-8"?>
<svg id="Calque_1" data-name="Calque 1" xmlns="http://www.w3.org/2000/svg" xmlns:xlink="http://www.w3.org/1999/xlink" viewBox="0 0 245.65 233.79">
  <defs>
    <style>
      .cls-1 {
        fill: none;
      }

      .cls-2 {
        fill: #ff7fdc;
      }

      .cls-3 {
        clip-path: url(#clippath-1);
      }

      .cls-4 {
        clip-path: url(#clippath-2);
      }

      .cls-5 {
        fill: url(#Nouvelle_nuance_de_dégradé_1_2-4);
      }

      .cls-6 {
        fill: url(#Nouvelle_nuance_de_dégradé_1_2-5);
      }

      .cls-7 {
        fill: url(#Nouvelle_nuance_de_dégradé_1_2-2);
      }

      .cls-8 {
        fill: url(#Nouvelle_nuance_de_dégradé_1_2-3);
      }

      .cls-9 {
        fill: url(#Nouvelle_nuance_de_dégradé_1_2-6);
      }

      .cls-10 {
        fill: aqua;
      }

      .cls-11 {
        fill: url(#Nouvelle_nuance_de_dégradé_2);
      }

      .cls-12 {
        fill: url(#Nouvelle_nuance_de_dégradé_2-2);
      }

      .cls-13 {
        fill: url(#Nouvelle_nuance_de_dégradé_1_2);
      }
    </style>
    <clipPath id="clippath">
      <rect class="cls-1" x="3741.84" y="-20.24" width="3840" height="2160"/>
    </clipPath>
    <clipPath id="clippath-1">
      <rect class="cls-1" x="3741.84" y="-2240.24" width="3840" height="2160"/>
    </clipPath>
    <clipPath id="clippath-2">
      <polygon class="cls-1" points="5174.46 -449.82 3201.73 308.34 3201.73 -321.96 5068.53 -449.82 5174.46 -449.82"/>
    </clipPath>
    <linearGradient id="Nouvelle_nuance_de_dégradé_1_2" data-name="Nouvelle nuance de dégradé 1 2" x1="2679.96" y1="-575.71" x2="4308.25" y2="-1475.38" gradientUnits="userSpaceOnUse">
      <stop offset="0" stop-color="aqua"/>
      <stop offset=".78" stop-color="#140b33" stop-opacity=".9"/>
    </linearGradient>
    <linearGradient id="Nouvelle_nuance_de_dégradé_1_2-2" data-name="Nouvelle nuance de dégradé 1 2" x1="3154.68" y1="-949.21" x2="5104.01" y2="-2026.27" xlink:href="#Nouvelle_nuance_de_dégradé_1_2"/>
    <linearGradient id="Nouvelle_nuance_de_dégradé_1_2-3" data-name="Nouvelle nuance de dégradé 1 2" x1="3042.27" y1="-761.24" x2="4887.32" y2="-1780.69" xlink:href="#Nouvelle_nuance_de_dégradé_1_2"/>
    <linearGradient id="Nouvelle_nuance_de_dégradé_1_2-4" data-name="Nouvelle nuance de dégradé 1 2" x1="2997.28" y1="-634.03" x2="4779.33" y2="-1618.66" xlink:href="#Nouvelle_nuance_de_dégradé_1_2"/>
    <linearGradient id="Nouvelle_nuance_de_dégradé_1_2-5" data-name="Nouvelle nuance de dégradé 1 2" x1="2835.54" y1="-527.08" x2="4426.29" y2="-1406.01" xlink:href="#Nouvelle_nuance_de_dégradé_1_2"/>
    <linearGradient id="Nouvelle_nuance_de_dégradé_1_2-6" data-name="Nouvelle nuance de dégradé 1 2" x1="2805.35" y1="-575.18" x2="4405.19" y2="-1459.14" xlink:href="#Nouvelle_nuance_de_dégradé_1_2"/>
    <linearGradient id="Nouvelle_nuance_de_dégradé_2" data-name="Nouvelle nuance de dégradé 2" x1="-18.32" y1="164.45" x2="10.6" y2="164.45" gradientTransform="translate(152.42 -114.15) rotate(-3.57)" gradientUnits="userSpaceOnUse">
      <stop offset="0" stop-color="#1c0646"/>
      <stop offset=".22" stop-color="#200b56"/>
      <stop offset=".72" stop-color="#291676"/>
      <stop offset="1" stop-color="#2d1b83"/>
    </linearGradient>
    <linearGradient id="Nouvelle_nuance_de_dégradé_2-2" data-name="Nouvelle nuance de dégradé 2" x1="-32.8" y1="205.32" x2="-16.58" y2="205.32" xlink:href="#Nouvelle_nuance_de_dégradé_2"/>
  </defs>
  <g class="cls-3">
    <g class="cls-4">
      <g>
        <path class="cls-13" d="M2223.14,691.28L-724.52-263.87l3472.95-200.04,2575.54-3.44L2223.14,691.28ZM-708.53-264.55l2958.29,930.49L5317.7-467.03l-2570.58,3.31L-708.53-264.55Z"/>
        <polygon class="cls-7" points="3110.69 353.79 -372.47 -284.03 -358.74 -284.83 3138.21 343.57 3110.69 353.79"/>
        <polygon class="cls-8" points="3647.98 154.21 -56.81 -302.22 -44.46 -302.93 3665.58 147.67 3647.98 154.21"/>
        <polygon class="cls-5" points="4005.35 21.46 228.04 -318.63 239.22 -319.28 4017.57 16.92 4005.35 21.46"/>
        <polygon class="cls-6" points="209.9 31.52 205.76 30.2 4342.08 -465.91 4346.03 -465.91 209.9 31.52"/>
        <polygon class="cls-9" points="118.42 2.32 114.75 1.15 4251.05 -465.79 4254.87 -465.79 118.42 2.32"/>
      </g>
    </g>
  </g>
  <g>
    <path class="cls-10" d="M38.53,74.51c.36,4.22,1.54,8.25,3.5,11.96,1.89,3.59,4.44,6.74,7.55,9.37,3.12,2.63,6.65,4.59,10.51,5.85,3.76,1.22,7.67,1.72,11.64,1.47.25-.02.5-.03.74-.06,2.57-.22,5.1-.75,7.52-1.58,2.35-.81,4.6-1.89,6.7-3.23l1.18-.76-13.76-11.59,2.75,6.47c.27.64.24,1.36-.07,1.97-.31.61-.88,1.05-1.55,1.21-2.59.59-5.25.76-7.89.5-.69-.07-1.31-.44-1.7-1.01-.39-.57-.5-1.28-.31-1.95l3.35-11.78-.33-.42c-.24-.3-.45-.62-.62-.95l-1.2-2.28-4.14,14.59c-.19.66-.66,1.21-1.29,1.49-.63.28-1.35.27-1.98-.03-2.42-1.18-4.61-2.74-6.52-4.64-.49-.49-.74-1.16-.68-1.85.06-.69.42-1.31.98-1.71,3.02-2.12,5.33-3.74,7.18-5.04,5.98-4.2,6.23-4.37,6.56-4.49l.52-.19.15-.48c.37-1.18,1.09-2.2,2.07-2.96,1.5-1.16,2.91-1.23,3.93-1.29.1,0,.19,0,.27-.02l2.49-.16h.12s7.64-.48,7.64-.48l7.53-1.58c.77-.16,1.56.07,2.12.63l.33.33,7.29-.46-.12-1.08c-.47-4.12-1.71-8.04-3.71-11.64-1.93-3.49-4.48-6.55-7.57-9.09-3.1-2.54-6.6-4.45-10.4-5.66-3.94-1.25-8.04-1.71-12.19-1.35-4.22.36-8.25,1.54-11.96,3.5-3.59,1.89-6.74,4.44-9.37,7.55-2.63,3.12-4.59,6.65-5.85,10.51-1.3,4-1.78,8.16-1.42,12.38ZM74.26,69.33l-.08-.07s-.03-.02-.09-.12c-.02-.03-.04-.06-.06-.09h0c-.04-.07-.04-.16.01-.23.99-1.28,3.08-4.01,5.28-6.86l4.93-6.41c.42-.55,1.06-.88,1.75-.91.69-.03,1.35.24,1.81.75,1.97,2.16,3.52,4.62,4.61,7.31.26.64.22,1.36-.1,1.97-.33.61-.9,1.04-1.57,1.18l-16.47,3.47ZM69.98,50.06c-.04-.69.22-1.36.72-1.84.4-.38.91-.6,1.45-.63.13,0,.27,0,.4.01,2.98.33,5.84,1.21,8.5,2.6.61.32,1.04.89,1.19,1.56.15.68,0,1.38-.43,1.92l-10.21,13.28c-.05.06-.14.09-.22.06-.07-.02-.15-.05-.22-.07-.08-.02-.14-.09-.14-.17l-1.04-16.72ZM55.61,55.31c-.49-.49-.73-1.17-.66-1.86.06-.69.43-1.31.99-1.7,2.46-1.7,5.18-2.92,8.09-3.63.14-.03.27-.05.41-.06.54-.03,1.09.12,1.53.45.55.41.9,1.04.94,1.73l1.04,16.72c0,.08-.04.16-.12.19-.07.03-.14.06-.21.09h0c-.08.04-.17.03-.23-.03l-11.78-11.9ZM64.98,69.89c-1.26-.1-3.64-.3-6.34-.52-3.49-.29-7.51-.62-10.35-.85-.69-.06-1.31-.41-1.71-.98-.4-.57-.53-1.27-.35-1.94.74-2.81,1.97-5.44,3.66-7.83.4-.56,1.02-.91,1.7-.97.69-.06,1.36.19,1.85.68l11.03,11.14c.6.6.74.9.78.99,0,.02-.02.04-.03.06-.01.03-.03.06-.04.09-.04.08-.11.13-.19.12ZM46.18,72.26c.49-.49,1.16-.74,1.85-.68l16.69,1.38c.08,0,.15.06.17.14.01.05.02.09.04.13.02.08,0,.16-.08.21-2.38,1.67-9.57,6.72-13.71,9.62-.57.4-1.27.52-1.94.34-.67-.18-1.22-.64-1.51-1.26-1.18-2.53-1.9-5.22-2.17-8.01h0c-.06-.69.18-1.37.66-1.86Z"/>
    <path class="cls-11" d="M152.74,42.89l1.33-.67,13.53-6.83c1.68-.85,3.74-.18,4.6,1.51h0c.85,1.68.18,3.74-1.51,4.6l-12.33,6.22c-.07.22-1.61,5.02-5.71,17.45l-7.36.46c4.62-13.98,6.93-21.14,7.45-22.73Z"/>
    <path class="cls-12" d="M139.59,104.7l-6.5-2.13c.46-1.39,3.65-11.07,7.45-22.59l7.36-.46c-4.35,13.19-8.21,24.86-8.31,25.18Z"/>
    <path class="cls-2" d="M70.87,79.78c.99.83,27.95,25.72,46.33,42.68,10.08,9.31,16.19,22.15,17.05,35.85l1.35,21.63c.46,7.4-5.16,13.77-12.56,14.24l-8.85.55c-1.88.12-3.32,1.74-3.2,3.63h0c.12,1.88,1.74,3.32,3.63,3.2l51.32-3.21c1.88-.12,3.32-1.74,3.2-3.63h0c-.12-1.88-1.74-3.32-3.63-3.2l-8.85.55c-7.4.46-13.77-5.16-14.24-12.56l-1.35-21.61c-.86-13.71,3.61-27.23,12.48-37.72l40.63-48.1c.95-1.03,1.18-2.53.58-3.79-.6-1.26-1.91-2.03-3.3-1.95-1.31.08-15.95,1-40.02,2.5-2.42.15-4.87.3-7.36.46-34.85,2.18-68.9,4.3-71.22,4.45-3.06.19-4.35,4.04-1.99,6.03ZM81.8,80.05c.43-.03,29.29-1.83,59.97-3.75l7.36-.46c21.49-1.34,33.91-2.12,34.24-2.14l-47.42,56.96c-.53-.45-53.32-49.92-54.14-50.61Z"/>
    <path class="cls-10" d="M164.94,88.31l-29.32,37.31c-.27-.23-33.19-33.16-33.47-33.39.51-.03,62.26-3.89,62.78-3.92Z"/>
  </g>
</svg>